<mxfile host="app.diagrams.net" modified="2024-01-14T14:37:04.441Z" agent="Mozilla/5.0 (Windows NT 10.0; Win64; x64) AppleWebKit/537.36 (KHTML, like Gecko) Chrome/120.0.0.0 Safari/537.36" etag="OaqCNB0UoI2WesSlQkiE" version="22.1.18" type="github">
  <diagram name="Page-1" id="2s8lIBDPWAm2iXq2xNfp">
    <mxGraphModel dx="1562" dy="800" grid="1" gridSize="10" guides="1" tooltips="1" connect="1" arrows="1" fold="1" page="1" pageScale="1" pageWidth="850" pageHeight="1100" math="0" shadow="0">
      <root>
        <mxCell id="0" />
        <mxCell id="1" parent="0" />
        <mxCell id="TNaHEulCvzVZ4yrC0RY3-1" value="" style="rounded=0;whiteSpace=wrap;html=1;fillColor=#C9E1C8;fontStyle=1" vertex="1" parent="1">
          <mxGeometry x="76" y="1250" width="726" height="190" as="geometry" />
        </mxCell>
        <mxCell id="TNaHEulCvzVZ4yrC0RY3-2" value="" style="rounded=0;whiteSpace=wrap;html=1;fillColor=#C9E1C8;fontStyle=1" vertex="1" parent="1">
          <mxGeometry x="76" y="840" width="726" height="190" as="geometry" />
        </mxCell>
        <mxCell id="TNaHEulCvzVZ4yrC0RY3-3" value="" style="rounded=0;whiteSpace=wrap;html=1;fillColor=#D5E8D4;fontStyle=1" vertex="1" parent="1">
          <mxGeometry x="76" y="580" width="726" height="190" as="geometry" />
        </mxCell>
        <mxCell id="TNaHEulCvzVZ4yrC0RY3-4" value="&lt;b&gt;&lt;font style=&quot;font-size: 24px;&quot;&gt;HAPLOTYPE PIPELINE WORKFLOW &lt;/font&gt;&lt;/b&gt;" style="rounded=1;whiteSpace=wrap;html=1;fontSize=12;glass=0;strokeWidth=1;shadow=0;fillColor=#B9E0A5;" vertex="1" parent="1">
          <mxGeometry x="130" y="50" width="600" height="90" as="geometry" />
        </mxCell>
        <mxCell id="TNaHEulCvzVZ4yrC0RY3-5" value="" style="edgeStyle=orthogonalEdgeStyle;rounded=0;orthogonalLoop=1;jettySize=auto;html=1;" edge="1" parent="1" source="TNaHEulCvzVZ4yrC0RY3-6" target="TNaHEulCvzVZ4yrC0RY3-9">
          <mxGeometry relative="1" as="geometry" />
        </mxCell>
        <mxCell id="TNaHEulCvzVZ4yrC0RY3-6" value="TEST FOR CORRECT INSTALLATION" style="rhombus;whiteSpace=wrap;html=1;fillColor=#D5E8D4;" vertex="1" parent="1">
          <mxGeometry x="90" y="272.5" width="152" height="130" as="geometry" />
        </mxCell>
        <mxCell id="TNaHEulCvzVZ4yrC0RY3-7" value="&lt;font style=&quot;font-size: 18px;&quot;&gt;START EXECUTION&lt;/font&gt;" style="rounded=0;whiteSpace=wrap;html=1;fillColor=#D4E1F5;" vertex="1" parent="1">
          <mxGeometry x="84" y="460" width="710" height="30" as="geometry" />
        </mxCell>
        <mxCell id="TNaHEulCvzVZ4yrC0RY3-8" value="" style="edgeStyle=orthogonalEdgeStyle;rounded=0;orthogonalLoop=1;jettySize=auto;html=1;" edge="1" parent="1" source="TNaHEulCvzVZ4yrC0RY3-9" target="TNaHEulCvzVZ4yrC0RY3-11">
          <mxGeometry relative="1" as="geometry" />
        </mxCell>
        <mxCell id="TNaHEulCvzVZ4yrC0RY3-9" value="INITIATE CONDA" style="rhombus;whiteSpace=wrap;html=1;fillColor=#D5E8D4;" vertex="1" parent="1">
          <mxGeometry x="274" y="270" width="160" height="135" as="geometry" />
        </mxCell>
        <mxCell id="TNaHEulCvzVZ4yrC0RY3-10" value="" style="edgeStyle=orthogonalEdgeStyle;rounded=0;orthogonalLoop=1;jettySize=auto;html=1;" edge="1" parent="1" source="TNaHEulCvzVZ4yrC0RY3-11" target="TNaHEulCvzVZ4yrC0RY3-38">
          <mxGeometry relative="1" as="geometry" />
        </mxCell>
        <mxCell id="TNaHEulCvzVZ4yrC0RY3-11" value="TEST FOR CORRECT ARGUMENTS" style="rhombus;whiteSpace=wrap;html=1;fillColor=#D5E8D4;" vertex="1" parent="1">
          <mxGeometry x="454" y="267.5" width="158" height="140" as="geometry" />
        </mxCell>
        <mxCell id="TNaHEulCvzVZ4yrC0RY3-12" value="" style="edgeStyle=orthogonalEdgeStyle;rounded=0;orthogonalLoop=1;jettySize=auto;html=1;" edge="1" parent="1" source="TNaHEulCvzVZ4yrC0RY3-13" target="TNaHEulCvzVZ4yrC0RY3-15">
          <mxGeometry relative="1" as="geometry" />
        </mxCell>
        <mxCell id="TNaHEulCvzVZ4yrC0RY3-13" value="copy raw data to new output folder" style="whiteSpace=wrap;html=1;" vertex="1" parent="1">
          <mxGeometry x="86" y="600" width="120" height="60" as="geometry" />
        </mxCell>
        <mxCell id="TNaHEulCvzVZ4yrC0RY3-14" value="" style="edgeStyle=orthogonalEdgeStyle;rounded=0;orthogonalLoop=1;jettySize=auto;html=1;" edge="1" parent="1" source="TNaHEulCvzVZ4yrC0RY3-15" target="TNaHEulCvzVZ4yrC0RY3-17">
          <mxGeometry relative="1" as="geometry" />
        </mxCell>
        <mxCell id="TNaHEulCvzVZ4yrC0RY3-15" value="loop through all input files in raw data folder" style="whiteSpace=wrap;html=1;" vertex="1" parent="1">
          <mxGeometry x="286" y="600" width="120" height="60" as="geometry" />
        </mxCell>
        <mxCell id="TNaHEulCvzVZ4yrC0RY3-16" value="" style="edgeStyle=orthogonalEdgeStyle;rounded=0;orthogonalLoop=1;jettySize=auto;html=1;" edge="1" parent="1" source="TNaHEulCvzVZ4yrC0RY3-17" target="TNaHEulCvzVZ4yrC0RY3-19">
          <mxGeometry relative="1" as="geometry" />
        </mxCell>
        <mxCell id="TNaHEulCvzVZ4yrC0RY3-17" value="filter raw sequences with nanofilt" style="whiteSpace=wrap;html=1;" vertex="1" parent="1">
          <mxGeometry x="486" y="600" width="120" height="60" as="geometry" />
        </mxCell>
        <mxCell id="TNaHEulCvzVZ4yrC0RY3-18" value="" style="edgeStyle=orthogonalEdgeStyle;rounded=0;orthogonalLoop=1;jettySize=auto;html=1;" edge="1" parent="1" source="TNaHEulCvzVZ4yrC0RY3-19" target="TNaHEulCvzVZ4yrC0RY3-34">
          <mxGeometry relative="1" as="geometry" />
        </mxCell>
        <mxCell id="TNaHEulCvzVZ4yrC0RY3-19" value="demultiplex with demultiplex script" style="whiteSpace=wrap;html=1;" vertex="1" parent="1">
          <mxGeometry x="662" y="600" width="120" height="60" as="geometry" />
        </mxCell>
        <mxCell id="TNaHEulCvzVZ4yrC0RY3-20" value="" style="edgeStyle=orthogonalEdgeStyle;rounded=0;orthogonalLoop=1;jettySize=auto;html=1;" edge="1" parent="1" source="TNaHEulCvzVZ4yrC0RY3-21" target="TNaHEulCvzVZ4yrC0RY3-23">
          <mxGeometry relative="1" as="geometry" />
        </mxCell>
        <mxCell id="TNaHEulCvzVZ4yrC0RY3-21" value="AmpliconSorter Consensus Sequence Generation" style="whiteSpace=wrap;html=1;" vertex="1" parent="1">
          <mxGeometry x="522" y="860" width="120" height="60" as="geometry" />
        </mxCell>
        <mxCell id="TNaHEulCvzVZ4yrC0RY3-22" value="" style="edgeStyle=orthogonalEdgeStyle;rounded=0;orthogonalLoop=1;jettySize=auto;html=1;" edge="1" parent="1" source="TNaHEulCvzVZ4yrC0RY3-23" target="TNaHEulCvzVZ4yrC0RY3-25">
          <mxGeometry relative="1" as="geometry" />
        </mxCell>
        <mxCell id="TNaHEulCvzVZ4yrC0RY3-23" value="Indexing Consensus Sequences" style="whiteSpace=wrap;html=1;" vertex="1" parent="1">
          <mxGeometry x="302" y="860" width="120" height="60" as="geometry" />
        </mxCell>
        <mxCell id="TNaHEulCvzVZ4yrC0RY3-24" value="" style="edgeStyle=orthogonalEdgeStyle;rounded=0;orthogonalLoop=1;jettySize=auto;html=1;" edge="1" parent="1" source="TNaHEulCvzVZ4yrC0RY3-25" target="TNaHEulCvzVZ4yrC0RY3-26">
          <mxGeometry relative="1" as="geometry" />
        </mxCell>
        <mxCell id="TNaHEulCvzVZ4yrC0RY3-25" value="Check Ploidy" style="whiteSpace=wrap;html=1;" vertex="1" parent="1">
          <mxGeometry x="92" y="860" width="120" height="60" as="geometry" />
        </mxCell>
        <mxCell id="TNaHEulCvzVZ4yrC0RY3-26" value="" style="whiteSpace=wrap;html=1;" vertex="1" parent="1">
          <mxGeometry x="92" y="960" width="120" height="60" as="geometry" />
        </mxCell>
        <mxCell id="TNaHEulCvzVZ4yrC0RY3-27" value="" style="edgeStyle=orthogonalEdgeStyle;rounded=0;orthogonalLoop=1;jettySize=auto;html=1;" edge="1" parent="1" source="TNaHEulCvzVZ4yrC0RY3-28" target="TNaHEulCvzVZ4yrC0RY3-30">
          <mxGeometry relative="1" as="geometry" />
        </mxCell>
        <mxCell id="TNaHEulCvzVZ4yrC0RY3-28" value="Index Consensus Sequence with Minimap2 and Faidx" style="whiteSpace=wrap;html=1;" vertex="1" parent="1">
          <mxGeometry x="92" y="1270" width="120" height="60" as="geometry" />
        </mxCell>
        <mxCell id="TNaHEulCvzVZ4yrC0RY3-29" value="" style="edgeStyle=orthogonalEdgeStyle;rounded=0;orthogonalLoop=1;jettySize=auto;html=1;" edge="1" parent="1" source="TNaHEulCvzVZ4yrC0RY3-30" target="TNaHEulCvzVZ4yrC0RY3-32">
          <mxGeometry relative="1" as="geometry" />
        </mxCell>
        <mxCell id="TNaHEulCvzVZ4yrC0RY3-30" value="Variant Calling with NanoCaller" style="whiteSpace=wrap;html=1;" vertex="1" parent="1">
          <mxGeometry x="272" y="1270" width="120" height="60" as="geometry" />
        </mxCell>
        <mxCell id="TNaHEulCvzVZ4yrC0RY3-31" value="" style="edgeStyle=orthogonalEdgeStyle;rounded=0;orthogonalLoop=1;jettySize=auto;html=1;" edge="1" parent="1" source="TNaHEulCvzVZ4yrC0RY3-32" target="TNaHEulCvzVZ4yrC0RY3-33">
          <mxGeometry relative="1" as="geometry" />
        </mxCell>
        <mxCell id="TNaHEulCvzVZ4yrC0RY3-32" value="" style="whiteSpace=wrap;html=1;" vertex="1" parent="1">
          <mxGeometry x="442" y="1270" width="120" height="60" as="geometry" />
        </mxCell>
        <mxCell id="TNaHEulCvzVZ4yrC0RY3-33" value="" style="whiteSpace=wrap;html=1;" vertex="1" parent="1">
          <mxGeometry x="592" y="1270" width="120" height="60" as="geometry" />
        </mxCell>
        <mxCell id="TNaHEulCvzVZ4yrC0RY3-34" value="" style="whiteSpace=wrap;html=1;" vertex="1" parent="1">
          <mxGeometry x="662" y="700" width="120" height="60" as="geometry" />
        </mxCell>
        <mxCell id="TNaHEulCvzVZ4yrC0RY3-35" value="&lt;font style=&quot;font-size: 18px;&quot;&gt;SETUP&lt;/font&gt;" style="rounded=0;whiteSpace=wrap;html=1;fillColor=#D4E1F5;" vertex="1" parent="1">
          <mxGeometry x="84" y="170" width="710" height="30" as="geometry" />
        </mxCell>
        <mxCell id="TNaHEulCvzVZ4yrC0RY3-36" value="&lt;font style=&quot;font-size: 18px;&quot;&gt;1.&lt;/font&gt;" style="text;html=1;align=center;verticalAlign=middle;resizable=0;points=[];autosize=1;strokeColor=none;fillColor=none;" vertex="1" parent="1">
          <mxGeometry x="30" y="163" width="40" height="40" as="geometry" />
        </mxCell>
        <mxCell id="TNaHEulCvzVZ4yrC0RY3-37" value="&lt;div&gt;&lt;font style=&quot;font-size: 18px;&quot;&gt;2.&lt;/font&gt;&lt;/div&gt;" style="text;html=1;align=center;verticalAlign=middle;resizable=0;points=[];autosize=1;strokeColor=none;fillColor=none;" vertex="1" parent="1">
          <mxGeometry x="30" y="453" width="40" height="40" as="geometry" />
        </mxCell>
        <mxCell id="TNaHEulCvzVZ4yrC0RY3-38" value="TEST FOR EXISITING FASTQ FILES" style="rhombus;whiteSpace=wrap;html=1;fillColor=#D5E8D4;" vertex="1" parent="1">
          <mxGeometry x="640" y="271.25" width="150" height="132.5" as="geometry" />
        </mxCell>
        <mxCell id="TNaHEulCvzVZ4yrC0RY3-39" value="&lt;font style=&quot;font-size: 18px;&quot;&gt;DEMULTIPLEXING FASTQ FILES&lt;/font&gt;" style="rounded=0;whiteSpace=wrap;html=1;fillColor=#D5E8D4;fontStyle=1" vertex="1" parent="1">
          <mxGeometry x="76" y="530" width="726" height="50" as="geometry" />
        </mxCell>
        <mxCell id="TNaHEulCvzVZ4yrC0RY3-40" value="&lt;font style=&quot;font-size: 18px;&quot;&gt;GENERATE CONSESUS SEQUENCES&lt;br&gt;&lt;/font&gt;" style="rounded=0;whiteSpace=wrap;html=1;fillColor=#D5E8D4;fontStyle=1" vertex="1" parent="1">
          <mxGeometry x="76" y="790" width="726" height="50" as="geometry" />
        </mxCell>
        <mxCell id="TNaHEulCvzVZ4yrC0RY3-41" value="&lt;font style=&quot;font-size: 18px;&quot;&gt;GENERATE HAPLOTYPES &lt;br&gt;&lt;/font&gt;" style="rounded=0;whiteSpace=wrap;html=1;fillColor=#D5E8D4;fontStyle=1" vertex="1" parent="1">
          <mxGeometry x="76" y="1200" width="726" height="50" as="geometry" />
        </mxCell>
        <mxCell id="TNaHEulCvzVZ4yrC0RY3-42" value="" style="rounded=0;whiteSpace=wrap;html=1;fillColor=#C9E1C8;fontStyle=1" vertex="1" parent="1">
          <mxGeometry x="76" y="1520" width="726" height="190" as="geometry" />
        </mxCell>
        <mxCell id="TNaHEulCvzVZ4yrC0RY3-43" value="" style="edgeStyle=orthogonalEdgeStyle;rounded=0;orthogonalLoop=1;jettySize=auto;html=1;" edge="1" parent="1" source="TNaHEulCvzVZ4yrC0RY3-44" target="TNaHEulCvzVZ4yrC0RY3-46">
          <mxGeometry relative="1" as="geometry" />
        </mxCell>
        <mxCell id="TNaHEulCvzVZ4yrC0RY3-44" value="" style="whiteSpace=wrap;html=1;" vertex="1" parent="1">
          <mxGeometry x="92" y="1540" width="120" height="60" as="geometry" />
        </mxCell>
        <mxCell id="TNaHEulCvzVZ4yrC0RY3-45" value="" style="edgeStyle=orthogonalEdgeStyle;rounded=0;orthogonalLoop=1;jettySize=auto;html=1;" edge="1" parent="1" source="TNaHEulCvzVZ4yrC0RY3-46" target="TNaHEulCvzVZ4yrC0RY3-48">
          <mxGeometry relative="1" as="geometry" />
        </mxCell>
        <mxCell id="TNaHEulCvzVZ4yrC0RY3-46" value="" style="whiteSpace=wrap;html=1;" vertex="1" parent="1">
          <mxGeometry x="272" y="1540" width="120" height="60" as="geometry" />
        </mxCell>
        <mxCell id="TNaHEulCvzVZ4yrC0RY3-47" value="" style="edgeStyle=orthogonalEdgeStyle;rounded=0;orthogonalLoop=1;jettySize=auto;html=1;" edge="1" parent="1" source="TNaHEulCvzVZ4yrC0RY3-48" target="TNaHEulCvzVZ4yrC0RY3-49">
          <mxGeometry relative="1" as="geometry" />
        </mxCell>
        <mxCell id="TNaHEulCvzVZ4yrC0RY3-48" value="" style="whiteSpace=wrap;html=1;" vertex="1" parent="1">
          <mxGeometry x="442" y="1540" width="120" height="60" as="geometry" />
        </mxCell>
        <mxCell id="TNaHEulCvzVZ4yrC0RY3-49" value="" style="whiteSpace=wrap;html=1;" vertex="1" parent="1">
          <mxGeometry x="592" y="1540" width="120" height="60" as="geometry" />
        </mxCell>
        <mxCell id="TNaHEulCvzVZ4yrC0RY3-50" value="&lt;font style=&quot;font-size: 18px;&quot;&gt;SPECIES DELINEATION&lt;br&gt;&lt;/font&gt;" style="rounded=0;whiteSpace=wrap;html=1;fillColor=#D5E8D4;fontStyle=1" vertex="1" parent="1">
          <mxGeometry x="76" y="1470" width="726" height="50" as="geometry" />
        </mxCell>
      </root>
    </mxGraphModel>
  </diagram>
</mxfile>
